HIERARCHY
ROOT reference
{
  OFFSET 0 0 0
  CHANNELS 6 Xposition Yposition Zposition Zrotation Xrotation Yrotation
  JOINT Hips
  {
    OFFSET 19.8941 91.4584 12.6699
    CHANNELS 3 Zrotation Xrotation Yrotation
    JOINT RightUpLeg
    {
      OFFSET -9.21136 -1.54315 -0.00338228
      CHANNELS 3 Zrotation Xrotation Yrotation
      JOINT RightLeg
      {
        OFFSET 0.100199 -41.8913 0.117885
        CHANNELS 3 Zrotation Xrotation Yrotation
        JOINT RightFoot
        {
          OFFSET -0.0312538 -39.9042 0.200326
          CHANNELS 3 Zrotation Xrotation Yrotation
          End Site
          {
            OFFSET 0 -7.69 17.5
          }
        }
      }
    }
    JOINT LeftUpLeg
    {
      OFFSET 9.2904 -1.6473 0.00344049
      CHANNELS 3 Zrotation Xrotation Yrotation
      JOINT LeftLeg
      {
        OFFSET 0.15381 -41.8817 -0.0541105
        CHANNELS 3 Zrotation Xrotation Yrotation
        JOINT LeftFoot
        {
          OFFSET 0.872932 -43.9846 -0.139608
          CHANNELS 3 Zrotation Xrotation Yrotation
          End Site
          {
            OFFSET 0 -7.69 17.5
          }
        }
      }
    }
    JOINT Spine
    {
      OFFSET 0.0768477 14.3139 0.027738
      CHANNELS 3 Zrotation Xrotation Yrotation
      JOINT Spine1
      {
        OFFSET -0.0133682 9.71866 0.00713354
        CHANNELS 3 Zrotation Xrotation Yrotation
        JOINT Spine2
        {
          OFFSET -0.0175262 10.1212 -0.00524987
          CHANNELS 3 Zrotation Xrotation Yrotation
          JOINT Spine3
          {
            OFFSET -0.00348171 9.71796 0.0104149
            CHANNELS 3 Zrotation Xrotation Yrotation
            JOINT Neck
            {
              OFFSET -0.0845439 10.3822 0.044921
              CHANNELS 3 Zrotation Xrotation Yrotation
              JOINT Head
              {
                OFFSET -0.0310878 9.44025 0.0694291
                CHANNELS 3 Zrotation Xrotation Yrotation
                End Site
                {
                  OFFSET 0 15.95 0
                }
              }
            }
            JOINT RightShoulder
            {
              OFFSET -3.20882 6.90619 -0.0326675
              CHANNELS 3 Zrotation Xrotation Yrotation
              JOINT RightArm
              {
                OFFSET -12.8514 -0.0142271 -0.0483735
                CHANNELS 3 Zrotation Xrotation Yrotation
                JOINT RightForeArm
                {
                  OFFSET -26.4475 -0.0994884 -0.035967
                  CHANNELS 3 Zrotation Xrotation Yrotation
                  JOINT RightHand
                  {
                    OFFSET -25.9226 -0.102631 -0.136889
                    CHANNELS 3 Zrotation Xrotation Yrotation
                    JOINT RightHandThumb1
                    {
                      OFFSET -2.48905 0.190105 3.12053
                      CHANNELS 3 Zrotation Xrotation Yrotation
                      JOINT RightHandThumb2
                      {
                        OFFSET -3.68274 0 0
                        CHANNELS 3 Zrotation Xrotation Yrotation
                        JOINT RightHandThumb3
                        {
                          OFFSET -2.55832 0 0
                          CHANNELS 3 Zrotation Xrotation Yrotation
                          End Site
                          {
                            OFFSET -2.194 0 0
                          }
                        }
                      }
                    }
                    JOINT RightInHandIndex
                    {
                      OFFSET -3.22368 0.508421 1.97842
                      CHANNELS 3 Zrotation Xrotation Yrotation
                      JOINT RightHandIndex1
                      {
                        OFFSET -5.21684 -0.091368 0.999158
                        CHANNELS 3 Zrotation Xrotation Yrotation
                        JOINT RightHandIndex2
                        {
                          OFFSET -3.61937 0 0
                          CHANNELS 3 Zrotation Xrotation Yrotation
                          JOINT RightHandIndex3
                          {
                            OFFSET -2.0521 0 0
                            CHANNELS 3 Zrotation Xrotation Yrotation
                            End Site
                            {
                              OFFSET -1.805 0 0
                            }
                          }
                        }
                      }
                    }
                    JOINT RightInHandMiddle
                    {
                      OFFSET -3.38211 0.517263 0.756737
                      CHANNELS 3 Zrotation Xrotation Yrotation
                      JOINT RightHandMiddle1
                      {
                        OFFSET -5.17411 -0.084 0.313895
                        CHANNELS 3 Zrotation Xrotation Yrotation
                        JOINT RightHandMiddle2
                        {
                          OFFSET -3.94947 0 0
                          CHANNELS 3 Zrotation Xrotation Yrotation
                          JOINT RightHandMiddle3
                          {
                            OFFSET -2.47579 0 0
                            CHANNELS 3 Zrotation Xrotation Yrotation
                            End Site
                            {
                              OFFSET -1.975 0 0
                            }
                          }
                        }
                      }
                    }
                    JOINT RightInHandRing
                    {
                      OFFSET -3.36516 0.537895 -0.128947
                      CHANNELS 3 Zrotation Xrotation Yrotation
                      JOINT RightHandRing1
                      {
                        OFFSET -4.63474 -0.022105 -0.478947
                        CHANNELS 3 Zrotation Xrotation Yrotation
                        JOINT RightHandRing2
                        {
                          OFFSET -3.44238 0 0
                          CHANNELS 3 Zrotation Xrotation Yrotation
                          JOINT RightHandRing3
                          {
                            OFFSET -2.3881 0 0
                            CHANNELS 3 Zrotation Xrotation Yrotation
                            End Site
                            {
                              OFFSET -1.857 0 0
                            }
                          }
                        }
                      }
                    }
                    JOINT RightInHandPinky
                    {
                      OFFSET -3.16105 0.469368 -1.20179
                      CHANNELS 3 Zrotation Xrotation Yrotation
                      JOINT RightHandPinky1
                      {
                        OFFSET -4.14105 -0.022105 -1.09053
                        CHANNELS 3 Zrotation Xrotation Yrotation
                        JOINT RightHandPinky2
                        {
                          OFFSET -2.75653 0 0
                          CHANNELS 3 Zrotation Xrotation Yrotation
                          JOINT RightHandPinky3
                          {
                            OFFSET -1.74189 0 0
                            CHANNELS 3 Zrotation Xrotation Yrotation
                            End Site
                            {
                              OFFSET -1.645 0 0
                            }
                          }
                        }
                      }
                    }
                  }
                }
              }
            }
            JOINT LeftShoulder
            {
              OFFSET 3.19355 6.9059 0.0487761
              CHANNELS 3 Zrotation Xrotation Yrotation
              JOINT LeftArm
              {
                OFFSET 12.7349 -0.00433124 -0.0458964
                CHANNELS 3 Zrotation Xrotation Yrotation
                JOINT LeftForeArm
                {
                  OFFSET 26.4064 -0.194468 0.00909971
                  CHANNELS 3 Zrotation Xrotation Yrotation
                  JOINT LeftHand
                  {
                    OFFSET 25.9027 0.0515579 -0.250056
                    CHANNELS 3 Zrotation Xrotation Yrotation
                    JOINT LeftHandThumb1
                    {
                      OFFSET 2.48905 0.190105 3.12053
                      CHANNELS 3 Zrotation Xrotation Yrotation
                      JOINT LeftHandThumb2
                      {
                        OFFSET 3.68274 0 0
                        CHANNELS 3 Zrotation Xrotation Yrotation
                        JOINT LeftHandThumb3
                        {
                          OFFSET 2.55832 0 0
                          CHANNELS 3 Zrotation Xrotation Yrotation
                          End Site
                          {
                            OFFSET 2.194 0 0
                          }
                        }
                      }
                    }
                    JOINT LeftInHandIndex
                    {
                      OFFSET 3.22368 0.508421 1.97842
                      CHANNELS 3 Zrotation Xrotation Yrotation
                      JOINT LeftHandIndex1
                      {
                        OFFSET 5.21684 -0.091368 0.999158
                        CHANNELS 3 Zrotation Xrotation Yrotation
                        JOINT LeftHandIndex2
                        {
                          OFFSET 3.61937 0 0
                          CHANNELS 3 Zrotation Xrotation Yrotation
                          JOINT LeftHandIndex3
                          {
                            OFFSET 2.0521 0 0
                            CHANNELS 3 Zrotation Xrotation Yrotation
                            End Site
                            {
                              OFFSET 1.805 0 0
                            }
                          }
                        }
                      }
                    }
                    JOINT LeftInHandMiddle
                    {
                      OFFSET 3.38211 0.517263 0.756737
                      CHANNELS 3 Zrotation Xrotation Yrotation
                      JOINT LeftHandMiddle1
                      {
                        OFFSET 5.17411 -0.084 0.313895
                        CHANNELS 3 Zrotation Xrotation Yrotation
                        JOINT LeftHandMiddle2
                        {
                          OFFSET 3.94947 0 0
                          CHANNELS 3 Zrotation Xrotation Yrotation
                          JOINT LeftHandMiddle3
                          {
                            OFFSET 2.47579 0 0
                            CHANNELS 3 Zrotation Xrotation Yrotation
                            End Site
                            {
                              OFFSET 1.975 0 0
                            }
                          }
                        }
                      }
                    }
                    JOINT LeftInHandRing
                    {
                      OFFSET 3.36516 0.537895 -0.128947
                      CHANNELS 3 Zrotation Xrotation Yrotation
                      JOINT LeftHandRing1
                      {
                        OFFSET 4.63474 -0.022105 -0.478947
                        CHANNELS 3 Zrotation Xrotation Yrotation
                        JOINT LeftHandRing2
                        {
                          OFFSET 3.44238 0 0
                          CHANNELS 3 Zrotation Xrotation Yrotation
                          JOINT LeftHandRing3
                          {
                            OFFSET 2.3881 0 0
                            CHANNELS 3 Zrotation Xrotation Yrotation
                            End Site
                            {
                              OFFSET 1.857 0 0
                            }
                          }
                        }
                      }
                    }
                    JOINT LeftInHandPinky
                    {
                      OFFSET 3.16105 0.469368 -1.20179
                      CHANNELS 3 Zrotation Xrotation Yrotation
                      JOINT LeftHandPinky1
                      {
                        OFFSET 4.14105 -0.022105 -1.09053
                        CHANNELS 3 Zrotation Xrotation Yrotation
                        JOINT LeftHandPinky2
                        {
                          OFFSET 2.75653 0 0
                          CHANNELS 3 Zrotation Xrotation Yrotation
                          JOINT LeftHandPinky3
                          {
                            OFFSET 1.74189 0 0
                            CHANNELS 3 Zrotation Xrotation Yrotation
                            End Site
                            {
                              OFFSET 1.645 0 0
                            }
                          }
                        }
                      }
                    }
                  }
                }
              }
            }
          }
        }
      }
    }
  }
}
MOTION
Frames: 2
Frame Time: 0.00416667
4.500000000000000000e+02 0.000000000000000000e+00 0.000000000000000000e+00 0.000000000000000000e+00 0.000000000000000000e+00 0.000000000000000000e+00 3.607909695806421624e-02 1.132049820553699196e-03 -1.010353521661720572e-01 5.738108931474368568e-02 -6.364619195142037777e-02 8.690563911646639883e-02 5.519851333359283158e-02 3.445439649912849372e-02 7.700685713535937449e-02 2.961496746742939279e-02 1.315287197718567440e-02 -4.210899293180900282e-02 1.532622785992338588e-01 -5.408587749364590636e-03 2.771990396429085957e-01 4.199344661408707137e-03 3.602696085703560591e-02 -1.178462294994323117e-01 -1.878669000188696106e-02 -4.850816143373368888e-02 1.186768286447764838e-02 5.430586501777673325e-02 6.331537828213788799e-02 3.925749354314177486e-01 2.488789428858049699e-02 -4.000893510124417518e-02 1.033620873195943424e-01 3.483693405798864162e-02 5.941653291585563545e-02 2.082455576773559192e-01 -2.306759839621691423e-03 1.495640553938310489e-02 -2.678475912571767759e-02 -1.633066781841762630e-03 1.412021688238302743e-02 -2.782114457127442958e-02 -3.422997799917517486e-02 2.758052187400839017e-01 -5.111719481905143692e-01 -2.247506847014169862e-01 -2.132938532910032547e-01 -6.109764835375672831e-01 1.608323956181968994e-01 6.009383804253134453e-01 8.706281435498898491e-02 -2.201469069306216220e+00 7.182453088230461580e-01 -5.879013730191918086e+01 2.484673349369520834e-01 8.756708305071476683e-01 -1.427539965747200157e-02 0.000000000000000000e+00 0.000000000000000000e+00 0.000000000000000000e+00 1.754986774125561427e-14 -9.073851505618419067e-15 0.000000000000000000e+00 1.814118307585460903e-14 -8.535576668731098652e-15 0.000000000000000000e+00 2.807218725731992041e-15 1.070179897926285037e-15 7.026612728637264633e-17 0.000000000000000000e+00 0.000000000000000000e+00 0.000000000000000000e+00 0.000000000000000000e+00 8.391429540744833835e-15 5.548621960315529004e-14 0.000000000000000000e+00 -5.835860017064576123e-16 1.380375281408213885e-14 2.807218725731992041e-15 1.070179897926285037e-15 7.026612728637264633e-17 0.000000000000000000e+00 7.196574774722272877e-15 3.689632826586509333e-14 0.000000000000000000e+00 1.243879566983584365e-14 5.277870282747761271e-14 0.000000000000000000e+00 1.239325174648260181e-15 7.523825507042030199e-15 2.807218725731992041e-15 1.070179897926285037e-15 7.026612728637264633e-17 0.000000000000000000e+00 0.000000000000000000e+00 0.000000000000000000e+00 0.000000000000000000e+00 8.956741689630286299e-15 3.995930113238452348e-14 0.000000000000000000e+00 2.936875418701018783e-15 7.580047945006431736e-15 2.807218725731992041e-15 1.070179897926285037e-15 7.026612728637264633e-17 0.000000000000000000e+00 0.000000000000000000e+00 0.000000000000000000e+00 0.000000000000000000e+00 5.501321846995906133e-15 2.916682664421105990e-14 0.000000000000000000e+00 4.524676519948902549e-16 4.892555437377360923e-15 -8.611485176199139280e-02 6.060404856978368615e-02 -4.813876276083367545e-01 -1.385837981807558350e-01 -3.747384734192719669e-01 6.271643461468869862e-01 1.770760443736512091e+00 5.449667692919537565e-01 5.455232635809567077e-01 3.499783711023798372e-01 -5.093140219548167313e-02 -7.581119595828157698e-02 0.000000000000000000e+00 0.000000000000000000e+00 0.000000000000000000e+00 -1.234766402374320261e-15 1.005323012439452110e-14 0.000000000000000000e+00 -3.878108586815877812e-15 1.294574316574077493e-14 0.000000000000000000e+00 3.976361108320944655e-15 -2.214842282733174166e-15 -9.939324985780140290e-16 0.000000000000000000e+00 0.000000000000000000e+00 0.000000000000000000e+00 0.000000000000000000e+00 3.649753041387340524e-15 1.292020075804056127e-14 0.000000000000000000e+00 4.886530685990052011e-15 2.038545148483542122e-14 3.976361108320944655e-15 -2.214842282733174166e-15 -9.939324985780140290e-16 0.000000000000000000e+00 -4.070436199557492248e-15 8.599493723802759762e-15 0.000000000000000000e+00 -3.544287581943036091e-15 7.882768011608853871e-15 0.000000000000000000e+00 2.210677608030249718e-15 -5.419142137686829820e-16 3.976361108320944655e-15 -2.214842282733174166e-15 -9.939324985780140290e-16 0.000000000000000000e+00 0.000000000000000000e+00 0.000000000000000000e+00 0.000000000000000000e+00 -5.181792491464695083e-15 9.232709219154792575e-15 0.000000000000000000e+00 -1.224645343694908854e-15 1.012825067750145301e-14 3.976361108320944655e-15 -2.214842282733174166e-15 -9.939324985780140290e-16 0.000000000000000000e+00 0.000000000000000000e+00 0.000000000000000000e+00 0.000000000000000000e+00 -2.672648413133411172e-15 9.742900210864062791e-15 0.000000000000000000e+00 -2.529837936802379616e-15 6.499617400675175960e-15
4.500000000000000000e+02 0.000000000000000000e+00 0.000000000000000000e+00 0.000000000000000000e+00 0.000000000000000000e+00 0.000000000000000000e+00 2.991620052344529448e-02 -3.455687790634848211e-03 -1.176673420864754044e-01 6.152054586556755106e-02 -6.571424920088149435e-02 1.068854114153051232e-01 6.164157230390612807e-02 3.345156619744256432e-02 7.358340963934788259e-02 2.875583968014101127e-02 1.667706001137505070e-02 -4.104483536952884676e-02 1.620768767853767722e-01 1.527985283591329173e-04 2.950410937176454196e-01 3.012528834188356840e-03 3.713418088067168416e-02 -1.194995659466356192e-01 -2.138575034104231790e-02 -4.959290213640754619e-02 1.525440289075646536e-02 4.160079649937100527e-02 5.910562920036167150e-02 3.623743620718081759e-01 2.115780903984564032e-02 -4.338952238336957201e-02 9.269593632092434921e-02 2.822162656603570755e-02 7.284032329377007620e-02 1.942435546819601677e-01 -1.520175712773598736e-03 1.265723640636417895e-02 -2.458836076125498968e-02 -1.179575568375725155e-03 1.180039868221764709e-02 -2.547121914150683383e-02 -2.024313144625741745e-02 2.385560507954256615e-01 -4.709578987866526179e-01 -1.975885666255593753e-01 -2.253664081893376192e-01 -5.216185469938705577e-01 1.117243071453697528e-01 5.819365242819595219e-01 8.354981221320040286e-02 -4.522431371139549405e+00 7.417813152718790715e-01 -5.158436373015116772e+01 2.450883432583038091e-01 8.850565464874531330e-01 7.573883448397616958e-02 0.000000000000000000e+00 0.000000000000000000e+00 0.000000000000000000e+00 1.689785522664036022e-14 -8.804849883074333244e-15 0.000000000000000000e+00 1.874534631805199700e-14 -8.475741158594250394e-15 0.000000000000000000e+00 3.058394216070570249e-15 1.430946411562942468e-15 2.689938609324617463e-16 0.000000000000000000e+00 0.000000000000000000e+00 0.000000000000000000e+00 0.000000000000000000e+00 8.450627656952352886e-15 5.576876076201427831e-14 0.000000000000000000e+00 1.124796079619761521e-17 1.469375616875057593e-14 3.058394216070570249e-15 1.430946411562942468e-15 2.689938609324617463e-16 0.000000000000000000e+00 6.513396323669183334e-15 3.182045055432626436e-14 0.000000000000000000e+00 1.273708278320926383e-14 5.418196290265055295e-14 0.000000000000000000e+00 1.450537096970530000e-15 9.687501444075535754e-15 3.058394216070570249e-15 1.430946411562942468e-15 2.689938609324617463e-16 0.000000000000000000e+00 0.000000000000000000e+00 0.000000000000000000e+00 0.000000000000000000e+00 9.761226346759074743e-15 4.253107909324471370e-14 0.000000000000000000e+00 2.672096159620459765e-15 9.064010767540350825e-15 3.058394216070570249e-15 1.430946411562942468e-15 2.689938609324617463e-16 0.000000000000000000e+00 0.000000000000000000e+00 0.000000000000000000e+00 0.000000000000000000e+00 6.672572943109599499e-15 3.299681422361833524e-14 0.000000000000000000e+00 5.176973851147399060e-16 7.328764555512688159e-15 -8.064482039689069293e-02 1.601889019588757096e-02 -4.362362925143564718e-01 -3.242967068595155322e-02 -3.708630297049330116e-01 4.864191145714522602e-01 1.842435578560707388e+00 5.873954519914470485e-01 6.257250608809730164e-01 4.029930734439288731e-01 -2.089803200835841923e-01 -4.738468832620594540e-02 0.000000000000000000e+00 0.000000000000000000e+00 0.000000000000000000e+00 -1.025826542993497950e-15 8.863453564919549044e-15 0.000000000000000000e+00 -3.769570962442642377e-15 1.279371007843544365e-14 0.000000000000000000e+00 3.674933385224595131e-15 -1.870700478776726923e-15 -1.242984173038142936e-15 0.000000000000000000e+00 0.000000000000000000e+00 0.000000000000000000e+00 0.000000000000000000e+00 3.793284773118568229e-15 1.225661228733573330e-14 0.000000000000000000e+00 5.756885838908061409e-15 1.957384618599206501e-14 3.674933385224595131e-15 -1.870700478776726923e-15 -1.242984173038142936e-15 0.000000000000000000e+00 -4.188691087550177896e-15 7.286122372515927221e-15 0.000000000000000000e+00 -3.443062764161003707e-15 8.134457153288653603e-15 0.000000000000000000e+00 2.711822063888648791e-15 -1.490458437844452811e-15 3.674933385224595131e-15 -1.870700478776726923e-15 -1.242984173038142936e-15 0.000000000000000000e+00 0.000000000000000000e+00 0.000000000000000000e+00 0.000000000000000000e+00 -4.563766435800789522e-15 8.680154361492914187e-15 0.000000000000000000e+00 -9.546162778177164893e-16 9.956365986663879266e-15 3.674933385224595131e-15 -1.870700478776726923e-15 -1.242984173038142936e-15 0.000000000000000000e+00 0.000000000000000000e+00 0.000000000000000000e+00 0.000000000000000000e+00 -2.399919079423945293e-15 8.753123918695018775e-15 0.000000000000000000e+00 -3.121649864634543004e-15 5.468084299608539919e-15
